<?xml version="1.0" standalone="no"?>
<!DOCTYPE svg PUBLIC "-//W3C//DTD SVG 20010904//EN"
 "http://www.w3.org/TR/2001/REC-SVG-20010904/DTD/svg10.dtd">
<svg version="1.0" xmlns="http://www.w3.org/2000/svg"
 width="732.000000pt" height="1280.000000pt" viewBox="0 0 732.000000 1280.000000"
 preserveAspectRatio="xMidYMid meet">
<metadata>
Created by potrace 1.15, written by Peter Selinger 2001-2017
</metadata>
<g transform="translate(0.000000,1280.000000) scale(0.100000,-0.100000)"
fill="#000000" stroke="none">
<path d="M5575 12789 c-22 -4 -57 -8 -78 -8 -80 -2 -263 -152 -325 -268 -42
-80 -62 -161 -62 -258 l0 -80 -47 -25 c-59 -32 -80 -61 -93 -130 -20 -103 18
-274 81 -368 27 -40 29 -48 19 -73 -7 -15 -29 -44 -51 -64 -34 -31 -39 -41
-39 -81 0 -28 -4 -43 -10 -39 -5 3 -10 20 -10 37 l0 30 -35 -31 c-20 -17 -42
-31 -50 -31 -8 0 -22 -13 -31 -30 -22 -36 -43 -45 -165 -69 -63 -13 -122 -33
-177 -60 -45 -23 -88 -41 -95 -41 -17 0 -11 42 38 278 43 203 46 298 12 330
-13 13 -39 27 -58 32 -63 18 -105 -10 -115 -79 -4 -25 -13 -64 -21 -86 -8 -22
-19 -87 -24 -144 -5 -58 -19 -143 -30 -190 -12 -47 -22 -103 -24 -124 -1 -20
-8 -44 -15 -51 -25 -31 -108 -76 -160 -88 -45 -10 -64 -22 -107 -66 -29 -30
-53 -57 -53 -60 0 -4 -5 -14 -10 -22 -8 -13 -11 -12 -23 3 -12 17 -26 6 -169
-136 -86 -85 -159 -163 -162 -175 -4 -12 -15 -24 -26 -27 -31 -10 -394 -375
-454 -457 -31 -43 -70 -88 -86 -100 -17 -12 -30 -29 -30 -39 0 -9 -11 -24 -25
-33 -14 -9 -25 -24 -25 -34 0 -9 44 -75 96 -146 l96 -130 -53 -104 c-51 -98
-54 -108 -53 -175 0 -40 7 -91 14 -114 12 -36 12 -55 1 -115 -27 -149 -27
-148 16 -239 73 -156 120 -186 240 -154 52 14 84 30 133 70 36 28 101 79 145
112 101 76 169 143 201 199 20 33 32 44 51 44 14 0 36 13 53 32 24 25 30 29
35 16 4 -9 -1 -32 -9 -53 -9 -21 -16 -57 -16 -81 0 -23 -7 -76 -15 -116 -9
-40 -23 -121 -31 -180 -8 -59 -21 -126 -29 -149 -9 -23 -22 -96 -31 -163 -8
-67 -22 -146 -30 -176 -8 -30 -22 -95 -30 -144 -8 -48 -23 -132 -34 -185 -17
-82 -121 -685 -165 -961 -7 -47 -23 -123 -35 -170 -11 -47 -30 -152 -41 -235
-11 -82 -35 -215 -54 -295 -19 -80 -43 -215 -55 -300 -26 -201 -39 -275 -56
-328 -8 -23 -14 -60 -14 -81 0 -21 -7 -57 -15 -80 -8 -23 -21 -95 -30 -159 -9
-64 -25 -147 -35 -184 -11 -36 -20 -82 -20 -101 0 -20 -11 -87 -25 -151 -14
-64 -25 -133 -25 -154 0 -21 -6 -61 -14 -88 -8 -27 -20 -84 -25 -128 -6 -43
-13 -82 -16 -87 -3 -4 -10 -45 -15 -89 -5 -44 -41 -239 -80 -434 -38 -194 -70
-372 -70 -395 0 -23 -7 -57 -15 -76 -8 -20 -21 -93 -31 -163 -9 -70 -22 -145
-30 -167 -7 -22 -14 -56 -14 -75 0 -19 -9 -71 -20 -115 -11 -44 -20 -99 -20
-122 0 -35 -5 -45 -37 -71 l-37 -29 11 -48 c9 -38 8 -59 -4 -99 -8 -28 -23
-110 -33 -181 -11 -72 -24 -151 -30 -175 -7 -25 -15 -70 -20 -100 -18 -123
-124 -274 -245 -351 -35 -22 -66 -46 -69 -54 -3 -8 -23 -26 -46 -40 -86 -55
-199 -157 -219 -200 -21 -44 -50 -176 -72 -322 -7 -46 -16 -83 -19 -83 -4 0
-28 9 -53 20 l-46 20 -56 -21 c-67 -25 -195 -109 -227 -148 -43 -53 -137 -103
-217 -117 -94 -17 -159 -56 -252 -150 -53 -55 -78 -74 -106 -79 -52 -10 -111
-41 -160 -86 -24 -22 -51 -39 -62 -39 -10 0 -24 -7 -32 -16 -7 -9 -40 -29 -73
-46 -34 -17 -70 -39 -82 -49 -11 -10 -99 -46 -195 -79 -164 -58 -289 -108
-289 -117 0 -22 36 -76 70 -106 74 -63 85 -65 590 -72 517 -7 546 -5 934 60
323 54 377 66 515 110 58 19 152 45 209 60 156 39 219 65 318 133 94 63 125
80 249 126 61 23 78 35 125 90 43 51 64 67 97 77 55 15 55 31 2 100 -33 45
-39 60 -36 89 6 46 24 154 44 262 21 115 14 173 -24 229 -17 24 -47 77 -67
118 -21 40 -66 115 -100 165 -130 190 -178 410 -122 561 8 22 15 59 16 82 0
23 5 54 11 70 6 15 15 60 20 98 17 133 27 186 43 210 21 33 20 57 -4 78 -25
21 -25 29 0 109 11 35 24 108 30 163 10 93 34 227 62 335 6 25 15 72 19 105
14 113 31 210 64 360 19 83 40 202 48 265 9 63 20 128 26 143 6 16 11 45 11
65 0 20 15 114 34 207 67 328 90 451 96 515 4 36 11 77 17 91 6 14 14 52 18
85 15 139 27 211 41 247 7 20 14 56 14 80 1 23 7 60 15 82 8 22 22 103 31 180
9 77 22 151 29 165 16 31 31 107 45 230 17 153 31 231 50 290 10 30 25 114 35
185 9 72 27 179 41 239 13 60 24 128 24 151 0 23 9 75 20 116 11 41 20 90 20
110 0 20 14 93 30 162 17 69 30 151 30 182 0 31 7 69 15 85 8 16 22 77 30 137
31 212 67 423 135 791 39 205 83 451 99 548 16 97 34 181 39 186 22 22 23 -42
2 -218 -23 -196 -28 -369 -10 -433 7 -28 8 -47 0 -60 -31 -59 3 -135 84 -188
l48 -31 5 -156 c5 -177 7 -170 -87 -297 -44 -59 -65 -99 -80 -152 -12 -40 -28
-94 -37 -121 -13 -41 -15 -99 -13 -350 3 -411 -5 -714 -20 -751 -17 -43 -15
-254 4 -340 20 -89 20 -124 0 -192 -13 -45 -14 -63 -5 -93 14 -49 14 -86 -1
-113 -10 -16 -13 -110 -13 -372 0 -377 -3 -407 -60 -545 -38 -93 -47 -123 -55
-175 -5 -27 -18 -76 -29 -107 -11 -31 -32 -111 -46 -178 -15 -67 -30 -133 -36
-147 -5 -14 -16 -70 -24 -126 -9 -55 -29 -166 -46 -246 -16 -80 -34 -185 -39
-234 -6 -48 -14 -95 -19 -105 -6 -9 -17 -97 -26 -194 -9 -98 -22 -199 -30
-225 -8 -26 -15 -67 -15 -89 0 -23 -7 -58 -15 -77 -8 -20 -15 -51 -15 -68 0
-17 -9 -68 -19 -113 -11 -44 -27 -144 -35 -221 -8 -78 -22 -157 -31 -178 -8
-20 -15 -66 -15 -103 0 -37 -5 -83 -11 -104 -12 -40 -1 -68 74 -192 l34 -57
-2 -138 c-2 -98 -7 -151 -19 -182 -12 -33 -16 -80 -16 -197 l0 -154 43 0 c24
0 131 -12 238 -26 148 -19 202 -23 229 -15 68 19 201 69 214 80 32 27 24 133
-17 241 -19 50 -27 99 -36 210 l-11 144 25 36 c14 20 30 63 36 95 5 33 19 86
30 118 10 31 19 71 19 87 0 17 7 47 15 67 8 19 15 50 15 67 0 17 15 81 34 141
18 61 39 142 46 180 7 39 19 82 26 97 8 15 14 38 14 52 0 14 6 40 14 58 13 30
23 73 45 183 4 22 13 50 19 62 7 13 22 68 33 124 12 56 27 120 35 142 8 22 14
54 14 71 1 17 7 42 15 56 8 14 14 41 15 61 0 20 7 53 15 72 8 20 15 60 15 89
0 29 7 75 15 102 8 27 15 75 15 106 0 31 7 79 15 106 8 27 15 74 15 105 0 31
14 123 30 204 17 81 30 178 30 214 0 36 7 97 15 136 8 38 15 106 15 150 1 44
5 100 11 125 5 25 14 79 18 120 5 41 13 89 19 105 6 17 22 84 37 150 15 66 38
147 50 180 28 73 81 251 130 440 65 251 95 327 95 239 0 -19 -14 -67 -31 -107
-40 -93 -46 -174 -25 -349 9 -75 16 -198 16 -273 0 -125 2 -142 31 -223 l30
-87 -6 -220 c-7 -267 8 -828 24 -870 6 -16 15 -88 20 -160 5 -71 14 -164 20
-205 25 -182 34 -370 26 -561 -12 -283 -11 -367 3 -539 12 -138 11 -165 -3
-235 -19 -88 -15 -126 21 -201 26 -54 32 -132 15 -188 -13 -44 -30 -184 -24
-205 2 -10 48 -46 101 -81 92 -60 102 -64 192 -77 l95 -14 65 -67 c54 -57 77
-72 140 -97 70 -27 87 -29 238 -32 l163 -4 57 32 c31 17 69 38 85 46 33 18 33
28 2 148 -29 111 -69 179 -148 250 -85 76 -137 129 -150 150 -7 13 -12 83 -13
190 -1 116 -7 191 -18 235 -9 38 -16 108 -16 171 0 69 -5 122 -15 149 -8 23
-15 75 -15 114 0 39 -6 96 -14 126 -12 46 -12 63 0 120 7 36 14 106 14 156 0
103 24 331 46 444 11 57 14 139 12 340 -3 227 0 277 15 350 11 47 23 141 28
210 20 289 29 377 38 415 6 22 11 72 11 110 0 39 7 97 15 130 8 33 14 80 15
105 0 47 37 254 49 280 5 8 41 27 81 41 40 14 84 35 97 47 21 19 23 26 17 76
-8 64 0 69 41 26 16 -16 32 -30 36 -30 5 0 14 18 20 40 16 51 44 69 179 110
110 34 142 49 228 113 37 28 52 46 52 63 0 30 -93 245 -210 488 l-91 189 24
26 c13 14 41 58 62 98 20 40 46 75 56 78 34 11 57 53 64 118 4 34 12 73 18 87
6 14 11 90 12 170 1 130 4 153 29 225 15 44 41 131 57 194 16 63 53 168 83
235 108 240 146 339 167 439 12 56 28 115 36 130 11 22 14 70 12 225 l-3 197
27 49 c15 27 27 63 27 79 0 41 -53 168 -98 235 -22 31 -43 73 -47 92 -4 19
-13 45 -20 56 -8 12 -21 50 -30 84 -9 34 -43 131 -76 214 -33 83 -65 173 -70
200 -5 27 -29 83 -54 125 -24 41 -54 102 -65 135 -11 34 -40 99 -63 146 l-42
84 -260 169 c-416 270 -439 287 -511 392 -61 88 -62 90 -47 119 8 16 52 68 97
115 162 171 196 230 196 337 0 64 -10 88 -45 107 l-25 13 30 41 c21 29 34 62
41 105 6 35 17 91 25 125 8 34 14 79 14 100 0 41 -33 171 -53 208 -50 94 -231
257 -319 288 -41 14 -220 39 -263 36 -11 -1 -38 -5 -60 -10z m884 -3399 c12
-22 54 -68 93 -102 40 -35 91 -81 114 -103 l43 -40 3 -415 3 -415 -45 -130
c-24 -71 -54 -143 -66 -160 -12 -16 -48 -82 -80 -145 -44 -86 -74 -130 -119
-175 l-59 -60 -7 46 c-4 26 -12 56 -18 67 -6 11 -11 40 -11 64 -1 24 -7 54
-15 68 -8 14 -14 39 -15 57 0 18 -8 48 -17 67 -15 33 -15 40 5 123 14 61 19
106 15 145 -5 55 -4 58 21 68 15 5 29 18 33 27 3 10 23 56 44 103 96 215 101
337 25 689 -49 222 -49 223 -8 258 20 17 36 7 61 -37z m-4017 -7865 c-3 -16
-1 -18 9 -7 7 6 17 12 21 12 13 0 9 -48 -6 -84 -8 -18 -14 -58 -15 -87 0 -30
-8 -79 -16 -109 -8 -30 -15 -71 -15 -91 l0 -36 -92 -13 c-190 -25 -243 -29
-280 -23 -36 5 -38 7 -38 43 0 21 9 82 20 135 11 53 20 111 20 129 0 24 7 36
29 49 16 9 37 17 46 17 9 0 23 7 31 15 9 8 26 15 40 15 13 0 24 4 24 9 0 5 21
18 48 30 35 15 64 20 112 18 59 -2 65 -4 62 -22z"/>
</g>
</svg>
