<?xml version="1.0" standalone="no"?>
<!DOCTYPE svg PUBLIC "-//W3C//DTD SVG 20010904//EN"
 "http://www.w3.org/TR/2001/REC-SVG-20010904/DTD/svg10.dtd">
<svg version="1.0" xmlns="http://www.w3.org/2000/svg"
 width="1280.000000pt" height="1280.000000pt" viewBox="0 0 1280.000000 1280.000000"
 preserveAspectRatio="xMidYMid meet">
<metadata>
Created by potrace 1.15, written by Peter Selinger 2001-2017
</metadata>
<g transform="translate(0.000000,1280.000000) scale(0.100000,-0.100000)"
fill="#000000" stroke="none">
<path d="M3178 10815 c-140 -51 -230 -188 -231 -350 0 -76 5 -96 47 -196 6
-14 -5 -18 -76 -28 -188 -28 -433 -87 -590 -143 l-58 -21 -55 57 c-86 87 -204
139 -348 152 -145 13 -327 -37 -575 -156 -163 -79 -243 -132 -320 -214 -71
-75 -95 -131 -90 -207 l4 -59 -98 0 c-116 0 -262 -20 -373 -52 -99 -28 -107
-42 -113 -178 -5 -109 17 -190 70 -267 105 -154 339 -179 471 -52 l49 47 15
-36 c101 -243 263 -742 344 -1065 93 -371 179 -831 179 -960 0 -97 -26 -187
-115 -392 -78 -181 -102 -258 -112 -358 -10 -110 35 -233 105 -284 62 -45 115
-66 177 -66 61 -1 93 10 131 44 20 19 21 18 69 -69 128 -230 317 -474 540
-697 342 -343 753 -638 1340 -960 153 -84 705 -358 905 -450 147 -67 174 -90
191 -157 15 -63 8 -119 -37 -317 -20 -86 -42 -181 -49 -211 -7 -30 -58 -254
-114 -497 -55 -242 -101 -446 -101 -452 0 -15 7838 -16 7892 -1 45 13 93 51
116 94 15 26 17 58 15 220 -6 728 -171 1155 -623 1606 -271 271 -606 506
-1180 828 -258 144 -377 228 -511 362 -172 171 -301 361 -393 579 -85 202 -83
240 25 384 80 108 127 190 162 284 55 145 62 186 62 380 l0 182 26 -6 c67 -13
172 47 222 128 74 120 74 234 1 611 -135 704 -376 1168 -759 1461 -361 276
-780 328 -1195 147 -418 -181 -747 -544 -987 -1089 -103 -234 -263 -692 -263
-753 0 -38 44 -83 96 -97 21 -6 71 -11 111 -11 85 0 117 -10 161 -53 62 -60
62 -54 62 -850 0 -571 -3 -718 -12 -714 -7 3 -60 27 -118 53 -391 175 -843
252 -1260 213 -63 -6 -182 -21 -265 -34 -473 -76 -951 -54 -1425 65 -279 70
-507 153 -745 272 -239 120 -366 213 -449 332 -60 86 -85 151 -95 253 -20 189
-87 329 -221 463 -98 98 -167 142 -283 180 l-82 27 -182 414 c-100 228 -190
439 -200 469 -11 35 -18 84 -18 136 0 72 3 87 37 155 21 40 69 117 108 169 83
111 131 194 155 268 33 102 135 205 255 259 120 53 334 93 499 93 l78 0 6 -49
c12 -102 95 -214 194 -262 59 -28 173 -37 240 -18 62 17 154 80 187 128 52 75
70 137 69 246 0 58 -7 130 -17 170 -15 62 -82 286 -106 355 -5 14 -27 86 -50
160 -23 74 -48 154 -57 177 -31 84 -125 167 -230 204 -66 22 -179 24 -235 4z"/>
</g>
</svg>
